STARTFONT 2.1
FONT -jmk-Neep-Bold-R-Normal--15-140-75-75-C-80-ISO8859-2
SIZE 15 75 75
FONTBOUNDINGBOX 8 15 0 -3
STARTPROPERTIES 29
FONTNAME_REGISTRY ""
FOUNDRY "jmk"
FAMILY_NAME "Neep"
WEIGHT_NAME "Bold"
SLANT "R"
SETWIDTH_NAME "Normal"
ADD_STYLE_NAME ""
PIXEL_SIZE 15
POINT_SIZE 140
RESOLUTION_X 75
RESOLUTION_Y 75
SPACING "C"
AVERAGE_WIDTH 80
CHARSET_REGISTRY "ISO8859"
CHARSET_ENCODING "2"
COPYRIGHT "Jim Knoble <jmknoble@pobox.com>"
WEIGHT 200
RESOLUTION 75
X_HEIGHT 7
FIGURE_WIDTH 8
QUAD_WIDTH 8
FONT_ASCENT 12
FONT_DESCENT 3
_XMBDFED_INFO "Edited with xmbdfed 3.7."
RELATIVE_WEIGHT 70
RELATIVE_SETWIDTH 50
CAP_HEIGHT 10
UNDERLINE_POSITION -2
UNDERLINE_THICKNESS 1
ENDPROPERTIES
CHARS 256
STARTCHAR solid box
ENCODING 0
SWIDTH 512 0
DWIDTH 8 0
BBX 8 15 0 -3
BITMAP
00
7E
7E
7E
7E
7E
7E
7E
7E
7E
7E
7E
7E
7E
00
ENDCHAR
STARTCHAR diamond
ENCODING 1
SWIDTH 512 0
DWIDTH 8 0
BBX 8 15 0 -3
BITMAP
00
00
00
00
08
1C
3E
7F
3E
1C
08
00
00
00
00
ENDCHAR
STARTCHAR dithered box
ENCODING 2
SWIDTH 512 0
DWIDTH 8 0
BBX 8 15 0 -3
BITMAP
00
55
AA
55
AA
55
AA
55
AA
55
AA
55
AA
55
AA
ENDCHAR
STARTCHAR horizontal tab visible control
ENCODING 3
SWIDTH 512 0
DWIDTH 8 0
BBX 8 15 0 -3
BITMAP
00
66
66
7E
66
66
66
00
3F
0C
0C
0C
0C
0C
00
ENDCHAR
STARTCHAR form feed visible control
ENCODING 4
SWIDTH 512 0
DWIDTH 8 0
BBX 8 15 0 -3
BITMAP
00
7C
60
78
60
60
60
00
1F
18
1E
18
18
18
00
ENDCHAR
STARTCHAR carriage return visible control
ENCODING 5
SWIDTH 512 0
DWIDTH 8 0
BBX 8 15 0 -3
BITMAP
00
3C
66
60
60
66
3C
00
3E
33
33
3E
3E
33
00
ENDCHAR
STARTCHAR line feed visible control
ENCODING 6
SWIDTH 512 0
DWIDTH 8 0
BBX 8 15 0 -3
BITMAP
00
60
60
60
60
60
7C
00
1F
18
1E
18
18
18
00
ENDCHAR
STARTCHAR degree sign
ENCODING 7
SWIDTH 512 0
DWIDTH 8 0
BBX 8 15 0 -3
BITMAP
00
00
3C
7E
66
7E
3C
00
00
00
00
00
00
00
00
ENDCHAR
STARTCHAR plus-minus-sign
ENCODING 8
SWIDTH 512 0
DWIDTH 8 0
BBX 8 15 0 -3
BITMAP
00
00
00
18
18
18
FF
FF
18
18
18
00
FF
FF
00
ENDCHAR
STARTCHAR null visible control
ENCODING 9
SWIDTH 512 0
DWIDTH 8 0
BBX 8 15 0 -3
BITMAP
00
66
76
76
6E
6E
66
00
18
18
18
18
18
1F
00
ENDCHAR
STARTCHAR vertical tab visible control
ENCODING 10
SWIDTH 512 0
DWIDTH 8 0
BBX 8 15 0 -3
BITMAP
00
66
66
66
66
3C
18
00
3F
0C
0C
0C
0C
0C
00
ENDCHAR
STARTCHAR box drawing lower right corner
ENCODING 11
SWIDTH 512 0
DWIDTH 8 0
BBX 8 15 0 -3
BITMAP
18
18
18
18
18
18
18
F8
F8
00
00
00
00
00
00
ENDCHAR
STARTCHAR box drawing upper right corner
ENCODING 12
SWIDTH 512 0
DWIDTH 8 0
BBX 8 15 0 -3
BITMAP
00
00
00
00
00
00
00
F8
F8
18
18
18
18
18
18
ENDCHAR
STARTCHAR box drawing upper left corner
ENCODING 13
SWIDTH 512 0
DWIDTH 8 0
BBX 8 15 0 -3
BITMAP
00
00
00
00
00
00
00
1F
1F
18
18
18
18
18
18
ENDCHAR
STARTCHAR box drawing lower left corner
ENCODING 14
SWIDTH 512 0
DWIDTH 8 0
BBX 8 15 0 -3
BITMAP
18
18
18
18
18
18
18
1F
1F
00
00
00
00
00
00
ENDCHAR
STARTCHAR box drawing cross
ENCODING 15
SWIDTH 512 0
DWIDTH 8 0
BBX 8 15 0 -3
BITMAP
18
18
18
18
18
18
18
FF
FF
18
18
18
18
18
18
ENDCHAR
STARTCHAR box drawing horizontal line high
ENCODING 16
SWIDTH 512 0
DWIDTH 8 0
BBX 8 15 0 -3
BITMAP
00
FF
FF
00
00
00
00
00
00
00
00
00
00
00
00
ENDCHAR
STARTCHAR box drawing horizontal line medium high
ENCODING 17
SWIDTH 512 0
DWIDTH 8 0
BBX 8 15 0 -3
BITMAP
00
00
00
00
FF
FF
00
00
00
00
00
00
00
00
00
ENDCHAR
STARTCHAR box drawing horizontal line middle
ENCODING 18
SWIDTH 512 0
DWIDTH 8 0
BBX 8 15 0 -3
BITMAP
00
00
00
00
00
00
00
FF
FF
00
00
00
00
00
00
ENDCHAR
STARTCHAR box drawing horizontal line medium low
ENCODING 19
SWIDTH 512 0
DWIDTH 8 0
BBX 8 15 0 -3
BITMAP
00
00
00
00
00
00
00
00
00
00
FF
FF
00
00
00
ENDCHAR
STARTCHAR box drawing horizontal line low
ENCODING 20
SWIDTH 512 0
DWIDTH 8 0
BBX 8 15 0 -3
BITMAP
00
00
00
00
00
00
00
00
00
00
00
00
FF
FF
00
ENDCHAR
STARTCHAR box drawing left tee
ENCODING 21
SWIDTH 512 0
DWIDTH 8 0
BBX 8 15 0 -3
BITMAP
18
18
18
18
18
18
18
1F
1F
18
18
18
18
18
18
ENDCHAR
STARTCHAR box drawing right tee
ENCODING 22
SWIDTH 512 0
DWIDTH 8 0
BBX 8 15 0 -3
BITMAP
18
18
18
18
18
18
18
F8
F8
18
18
18
18
18
18
ENDCHAR
STARTCHAR box drawing lower tee
ENCODING 23
SWIDTH 512 0
DWIDTH 8 0
BBX 8 15 0 -3
BITMAP
18
18
18
18
18
18
18
FF
FF
00
00
00
00
00
00
ENDCHAR
STARTCHAR box drawing upper tee
ENCODING 24
SWIDTH 512 0
DWIDTH 8 0
BBX 8 15 0 -3
BITMAP
00
00
00
00
00
00
00
FF
FF
18
18
18
18
18
18
ENDCHAR
STARTCHAR box drawing vertical line
ENCODING 25
SWIDTH 512 0
DWIDTH 8 0
BBX 8 15 0 -3
BITMAP
18
18
18
18
18
18
18
18
18
18
18
18
18
18
18
ENDCHAR
STARTCHAR less-than-or-equal sign
ENCODING 26
SWIDTH 512 0
DWIDTH 8 0
BBX 8 15 0 -3
BITMAP
00
00
06
0C
18
30
60
30
18
0C
06
00
7F
7F
00
ENDCHAR
STARTCHAR greater-than-or-equal sign
ENCODING 27
SWIDTH 512 0
DWIDTH 8 0
BBX 8 15 0 -3
BITMAP
00
00
30
18
0C
06
03
06
0C
18
30
00
7F
7F
00
ENDCHAR
STARTCHAR greek small letter pi
ENCODING 28
SWIDTH 512 0
DWIDTH 8 0
BBX 8 15 0 -3
BITMAP
00
00
00
00
00
7F
7F
36
36
36
37
33
00
00
00
ENDCHAR
STARTCHAR not-equal sign
ENCODING 29
SWIDTH 512 0
DWIDTH 8 0
BBX 8 15 0 -3
BITMAP
00
00
00
00
06
0C
7E
7E
18
7E
7E
30
60
00
00
ENDCHAR
STARTCHAR pound sign
ENCODING 30
SWIDTH 512 0
DWIDTH 8 0
BBX 8 15 0 -3
BITMAP
00
00
1E
3F
33
30
7C
7C
30
30
7F
7F
00
00
00
ENDCHAR
STARTCHAR middle dot
ENCODING 31
SWIDTH 512 0
DWIDTH 8 0
BBX 8 15 0 -3
BITMAP
00
00
00
00
00
00
18
3C
18
00
00
00
00
00
00
ENDCHAR
STARTCHAR U+0020 space
ENCODING 32
SWIDTH 512 0
DWIDTH 8 0
BBX 8 15 0 -3
BITMAP
00
00
00
00
00
00
00
00
00
00
00
00
00
00
00
ENDCHAR
STARTCHAR U+0021 exclamation mark
ENCODING 33
SWIDTH 512 0
DWIDTH 8 0
BBX 8 15 0 -3
BITMAP
00
00
18
18
18
18
18
18
18
00
18
18
00
00
00
ENDCHAR
STARTCHAR U+0022 quotation mark
ENCODING 34
SWIDTH 512 0
DWIDTH 8 0
BBX 8 15 0 -3
BITMAP
00
00
36
36
36
36
00
00
00
00
00
00
00
00
00
ENDCHAR
STARTCHAR U+0023 number sign
ENCODING 35
SWIDTH 512 0
DWIDTH 8 0
BBX 8 15 0 -3
BITMAP
00
00
00
36
36
7F
7F
36
7F
7F
36
36
00
00
00
ENDCHAR
STARTCHAR U+0024 dollar sign
ENCODING 36
SWIDTH 512 0
DWIDTH 8 0
BBX 8 15 0 -3
BITMAP
00
00
08
3E
7E
68
7C
3E
0E
7E
7C
08
00
00
00
ENDCHAR
STARTCHAR U+0025 percent sign
ENCODING 37
SWIDTH 512 0
DWIDTH 8 0
BBX 8 15 0 -3
BITMAP
00
00
23
73
76
2C
0C
18
1A
37
67
62
00
00
00
ENDCHAR
STARTCHAR U+0026 ampersand
ENCODING 38
SWIDTH 512 0
DWIDTH 8 0
BBX 8 15 0 -3
BITMAP
00
00
08
08
3C
7E
62
38
38
62
7E
3C
08
08
00
ENDCHAR
STARTCHAR U+0027 apostrophe
ENCODING 39
SWIDTH 512 0
DWIDTH 8 0
BBX 8 15 0 -3
BITMAP
00
00
1C
38
30
60
00
00
00
00
00
00
00
00
00
ENDCHAR
STARTCHAR U+0028 left parenthesis
ENCODING 40
SWIDTH 512 0
DWIDTH 8 0
BBX 8 15 0 -3
BITMAP
00
06
0C
18
18
30
30
30
30
30
18
18
0C
06
00
ENDCHAR
STARTCHAR U+0029 right parenthesis
ENCODING 41
SWIDTH 512 0
DWIDTH 8 0
BBX 8 15 0 -3
BITMAP
00
30
18
0C
0C
06
06
06
06
06
0C
0C
18
30
00
ENDCHAR
STARTCHAR U+002a asterisk
ENCODING 42
SWIDTH 512 0
DWIDTH 8 0
BBX 8 15 0 -3
BITMAP
00
00
00
00
00
36
1C
7F
1C
36
00
00
00
00
00
ENDCHAR
STARTCHAR U+002b plus sign
ENCODING 43
SWIDTH 512 0
DWIDTH 8 0
BBX 8 15 0 -3
BITMAP
00
00
00
00
18
18
18
FF
FF
18
18
18
00
00
00
ENDCHAR
STARTCHAR U+002c comma
ENCODING 44
SWIDTH 512 0
DWIDTH 8 0
BBX 8 15 0 -3
BITMAP
00
00
00
00
00
00
00
00
00
00
1C
38
30
60
00
ENDCHAR
STARTCHAR U+002d hyphen-minus
ENCODING 45
SWIDTH 512 0
DWIDTH 8 0
BBX 8 15 0 -3
BITMAP
00
00
00
00
00
00
00
7E
7E
00
00
00
00
00
00
ENDCHAR
STARTCHAR U+002e period
ENCODING 46
SWIDTH 512 0
DWIDTH 8 0
BBX 8 15 0 -3
BITMAP
00
00
00
00
00
00
00
00
00
00
18
3C
18
00
00
ENDCHAR
STARTCHAR U+002f forward slash
ENCODING 47
SWIDTH 512 0
DWIDTH 8 0
BBX 8 15 0 -3
BITMAP
00
03
03
06
06
0C
0C
18
18
30
30
60
60
00
00
ENDCHAR
STARTCHAR U+0030 digit zero
ENCODING 48
SWIDTH 512 0
DWIDTH 8 0
BBX 8 15 0 -3
BITMAP
00
00
1C
3E
63
63
6B
6B
63
63
3E
1C
00
00
00
ENDCHAR
STARTCHAR U+0031 digit one
ENCODING 49
SWIDTH 512 0
DWIDTH 8 0
BBX 8 15 0 -3
BITMAP
00
00
04
0C
1C
3C
0C
0C
0C
0C
0C
0C
00
00
00
ENDCHAR
STARTCHAR U+0032 digit two
ENCODING 50
SWIDTH 512 0
DWIDTH 8 0
BBX 8 15 0 -3
BITMAP
00
00
3E
7F
63
03
06
0C
18
30
7F
7F
00
00
00
ENDCHAR
STARTCHAR U+0033 digit three
ENCODING 51
SWIDTH 512 0
DWIDTH 8 0
BBX 8 15 0 -3
BITMAP
00
00
7F
7F
06
0C
1E
1F
03
63
7F
3E
00
00
00
ENDCHAR
STARTCHAR U+0034 digit four
ENCODING 52
SWIDTH 512 0
DWIDTH 8 0
BBX 8 15 0 -3
BITMAP
00
00
0E
1E
1E
36
36
66
7F
7F
06
06
00
00
00
ENDCHAR
STARTCHAR U+0035 digit five
ENCODING 53
SWIDTH 512 0
DWIDTH 8 0
BBX 8 15 0 -3
BITMAP
00
00
7F
7F
60
7E
7F
03
03
63
7F
3E
00
00
00
ENDCHAR
STARTCHAR U+0036 digit six
ENCODING 54
SWIDTH 512 0
DWIDTH 8 0
BBX 8 15 0 -3
BITMAP
00
00
3E
7F
63
60
6E
7F
63
63
7F
3E
00
00
00
ENDCHAR
STARTCHAR U+0037 digit seven
ENCODING 55
SWIDTH 512 0
DWIDTH 8 0
BBX 8 15 0 -3
BITMAP
00
00
7F
7F
03
06
06
0C
0C
18
18
30
00
00
00
ENDCHAR
STARTCHAR U+0038 digit eight
ENCODING 56
SWIDTH 512 0
DWIDTH 8 0
BBX 8 15 0 -3
BITMAP
00
00
3E
7F
63
63
3E
7F
63
63
7F
3E
00
00
00
ENDCHAR
STARTCHAR U+0039 digit nine
ENCODING 57
SWIDTH 512 0
DWIDTH 8 0
BBX 8 15 0 -3
BITMAP
00
00
3E
7F
63
63
7F
3B
03
63
7F
3E
00
00
00
ENDCHAR
STARTCHAR U+003a colon
ENCODING 58
SWIDTH 512 0
DWIDTH 8 0
BBX 8 15 0 -3
BITMAP
00
00
00
00
18
3C
18
00
00
00
18
3C
18
00
00
ENDCHAR
STARTCHAR U+003b semicolon
ENCODING 59
SWIDTH 512 0
DWIDTH 8 0
BBX 8 15 0 -3
BITMAP
00
00
00
00
18
3C
18
00
00
00
1C
38
30
60
00
ENDCHAR
STARTCHAR U+003c less-than sign
ENCODING 60
SWIDTH 512 0
DWIDTH 8 0
BBX 8 15 0 -3
BITMAP
00
00
00
06
0C
18
30
60
30
18
0C
06
00
00
00
ENDCHAR
STARTCHAR U+003d equals sign
ENCODING 61
SWIDTH 512 0
DWIDTH 8 0
BBX 8 15 0 -3
BITMAP
00
00
00
00
00
00
7E
7E
00
7E
7E
00
00
00
00
ENDCHAR
STARTCHAR U+003e greater-than sign
ENCODING 62
SWIDTH 512 0
DWIDTH 8 0
BBX 8 15 0 -3
BITMAP
00
00
00
60
30
18
0C
06
0C
18
30
60
00
00
00
ENDCHAR
STARTCHAR U+003f question mark
ENCODING 63
SWIDTH 512 0
DWIDTH 8 0
BBX 8 15 0 -3
BITMAP
00
00
7C
7E
06
0C
18
30
30
00
30
30
00
00
00
ENDCHAR
STARTCHAR U+0040 at sign
ENCODING 64
SWIDTH 512 0
DWIDTH 8 0
BBX 8 15 0 -3
BITMAP
00
00
1E
3F
61
47
4F
49
4F
67
30
1C
00
00
00
ENDCHAR
STARTCHAR U+0041 latin capital letter A
ENCODING 65
SWIDTH 512 0
DWIDTH 8 0
BBX 8 15 0 -3
BITMAP
00
00
3E
7F
63
63
7F
7F
63
63
63
63
00
00
00
ENDCHAR
STARTCHAR U+0042 latin capital letter B
ENCODING 66
SWIDTH 512 0
DWIDTH 8 0
BBX 8 15 0 -3
BITMAP
00
00
7C
7E
66
66
7E
7F
63
63
7F
7E
00
00
00
ENDCHAR
STARTCHAR U+0043 latin capital letter C
ENCODING 67
SWIDTH 512 0
DWIDTH 8 0
BBX 8 15 0 -3
BITMAP
00
00
3E
7F
63
60
60
60
60
63
7F
3E
00
00
00
ENDCHAR
STARTCHAR U+0044 latin capital letter D
ENCODING 68
SWIDTH 512 0
DWIDTH 8 0
BBX 8 15 0 -3
BITMAP
00
00
7C
7E
67
63
63
63
63
67
7E
7C
00
00
00
ENDCHAR
STARTCHAR U+0045 latin capital letter E
ENCODING 69
SWIDTH 512 0
DWIDTH 8 0
BBX 8 15 0 -3
BITMAP
00
00
7F
7F
60
60
7E
7E
60
60
7F
7F
00
00
00
ENDCHAR
STARTCHAR U+0046 latin capital letter F
ENCODING 70
SWIDTH 512 0
DWIDTH 8 0
BBX 8 15 0 -3
BITMAP
00
00
7F
7F
60
60
7E
7E
60
60
60
60
00
00
00
ENDCHAR
STARTCHAR U+0047 latin capital letter G
ENCODING 71
SWIDTH 512 0
DWIDTH 8 0
BBX 8 15 0 -3
BITMAP
00
00
3E
7F
63
60
6F
6F
63
63
7F
3F
00
00
00
ENDCHAR
STARTCHAR U+0048 latin capital letter H
ENCODING 72
SWIDTH 512 0
DWIDTH 8 0
BBX 8 15 0 -3
BITMAP
00
00
63
63
63
63
7F
7F
63
63
63
63
00
00
00
ENDCHAR
STARTCHAR U+0049 latin capital letter I
ENCODING 73
SWIDTH 512 0
DWIDTH 8 0
BBX 8 15 0 -3
BITMAP
00
00
7E
7E
18
18
18
18
18
18
7E
7E
00
00
00
ENDCHAR
STARTCHAR U+004a latin capital letter J
ENCODING 74
SWIDTH 512 0
DWIDTH 8 0
BBX 8 15 0 -3
BITMAP
00
00
1F
1F
03
03
03
03
03
63
7F
3E
00
00
00
ENDCHAR
STARTCHAR U+004b latin capital letter K
ENCODING 75
SWIDTH 512 0
DWIDTH 8 0
BBX 8 15 0 -3
BITMAP
00
00
63
66
6C
78
7C
6C
66
66
63
63
00
00
00
ENDCHAR
STARTCHAR U+004c latin capital letter L
ENCODING 76
SWIDTH 512 0
DWIDTH 8 0
BBX 8 15 0 -3
BITMAP
00
00
60
60
60
60
60
60
60
60
7F
7F
00
00
00
ENDCHAR
STARTCHAR U+004d latin capital letter M
ENCODING 77
SWIDTH 512 0
DWIDTH 8 0
BBX 8 15 0 -3
BITMAP
00
00
63
63
77
77
7F
6B
6B
63
63
63
00
00
00
ENDCHAR
STARTCHAR U+004e latin capital letter N
ENCODING 78
SWIDTH 512 0
DWIDTH 8 0
BBX 8 15 0 -3
BITMAP
00
00
63
63
73
73
7B
6F
67
67
63
63
00
00
00
ENDCHAR
STARTCHAR U+004f latin capital letter O
ENCODING 79
SWIDTH 512 0
DWIDTH 8 0
BBX 8 15 0 -3
BITMAP
00
00
3E
7F
63
63
63
63
63
63
7F
3E
00
00
00
ENDCHAR
STARTCHAR U+0050 latin capital letter P
ENCODING 80
SWIDTH 512 0
DWIDTH 8 0
BBX 8 15 0 -3
BITMAP
00
00
7E
7F
63
63
7F
7E
60
60
60
60
00
00
00
ENDCHAR
STARTCHAR U+0051 latin capital letter Q
ENCODING 81
SWIDTH 512 0
DWIDTH 8 0
BBX 8 15 0 -3
BITMAP
00
00
3E
7F
63
63
63
63
63
63
7F
3E
1C
0F
07
ENDCHAR
STARTCHAR U+0052 latin capital letter R
ENCODING 82
SWIDTH 512 0
DWIDTH 8 0
BBX 8 15 0 -3
BITMAP
00
00
7E
7F
63
63
7E
7C
66
66
63
63
00
00
00
ENDCHAR
STARTCHAR U+0053 latin capital letter S
ENCODING 83
SWIDTH 512 0
DWIDTH 8 0
BBX 8 15 0 -3
BITMAP
00
00
3E
7F
63
70
3C
1E
07
63
7F
3E
00
00
00
ENDCHAR
STARTCHAR U+0054 latin capital letter T
ENCODING 84
SWIDTH 512 0
DWIDTH 8 0
BBX 8 15 0 -3
BITMAP
00
00
FF
FF
18
18
18
18
18
18
18
18
00
00
00
ENDCHAR
STARTCHAR U+0055 latin capital letter U
ENCODING 85
SWIDTH 512 0
DWIDTH 8 0
BBX 8 15 0 -3
BITMAP
00
00
63
63
63
63
63
63
63
63
7F
3E
00
00
00
ENDCHAR
STARTCHAR U+0056 latin capital letter V
ENCODING 86
SWIDTH 512 0
DWIDTH 8 0
BBX 8 15 0 -3
BITMAP
00
00
63
63
63
63
63
63
36
36
1C
1C
00
00
00
ENDCHAR
STARTCHAR U+0057 latin capital letter W
ENCODING 87
SWIDTH 512 0
DWIDTH 8 0
BBX 8 15 0 -3
BITMAP
00
00
63
63
63
63
63
6B
6B
7F
77
22
00
00
00
ENDCHAR
STARTCHAR U+0058 latin capital letter X
ENCODING 88
SWIDTH 512 0
DWIDTH 8 0
BBX 8 15 0 -3
BITMAP
00
00
63
63
36
36
1C
1C
36
36
63
63
00
00
00
ENDCHAR
STARTCHAR U+0059 latin capital letter Y
ENCODING 89
SWIDTH 512 0
DWIDTH 8 0
BBX 8 15 0 -3
BITMAP
00
00
63
63
63
63
7F
3E
0C
0C
0C
0C
00
00
00
ENDCHAR
STARTCHAR U+005a latin capital letter Z
ENCODING 90
SWIDTH 512 0
DWIDTH 8 0
BBX 8 15 0 -3
BITMAP
00
00
7F
7F
03
06
0C
18
30
60
7F
7F
00
00
00
ENDCHAR
STARTCHAR U+005b left square bracket
ENCODING 91
SWIDTH 512 0
DWIDTH 8 0
BBX 8 15 0 -3
BITMAP
00
3E
3E
30
30
30
30
30
30
30
30
30
3E
3E
00
ENDCHAR
STARTCHAR U+005c backslash
ENCODING 92
SWIDTH 512 0
DWIDTH 8 0
BBX 8 15 0 -3
BITMAP
00
60
60
30
30
18
18
0C
0C
06
06
03
03
00
00
ENDCHAR
STARTCHAR U+005d right square bracket
ENCODING 93
SWIDTH 512 0
DWIDTH 8 0
BBX 8 15 0 -3
BITMAP
00
3E
3E
06
06
06
06
06
06
06
06
06
3E
3E
00
ENDCHAR
STARTCHAR U+005e circumflex
ENCODING 94
SWIDTH 512 0
DWIDTH 8 0
BBX 8 15 0 -3
BITMAP
00
00
18
3C
66
42
00
00
00
00
00
00
00
00
00
ENDCHAR
STARTCHAR U+005f underscore
ENCODING 95
SWIDTH 512 0
DWIDTH 8 0
BBX 8 15 0 -3
BITMAP
00
00
00
00
00
00
00
00
00
00
00
00
7F
7F
00
ENDCHAR
STARTCHAR U+0060 grave accent
ENCODING 96
SWIDTH 512 0
DWIDTH 8 0
BBX 8 15 0 -3
BITMAP
00
00
38
1C
0C
06
00
00
00
00
00
00
00
00
00
ENDCHAR
STARTCHAR U+0061 latin small letter a
ENCODING 97
SWIDTH 512 0
DWIDTH 8 0
BBX 8 15 0 -3
BITMAP
00
00
00
00
00
3E
3F
03
3F
63
7F
3B
00
00
00
ENDCHAR
STARTCHAR U+0062 latin small letter b
ENCODING 98
SWIDTH 512 0
DWIDTH 8 0
BBX 8 15 0 -3
BITMAP
00
00
60
60
60
6E
7F
63
63
63
7F
6E
00
00
00
ENDCHAR
STARTCHAR U+0063 latin small letter c
ENCODING 99
SWIDTH 512 0
DWIDTH 8 0
BBX 8 15 0 -3
BITMAP
00
00
00
00
00
3E
7F
63
60
63
7F
3E
00
00
00
ENDCHAR
STARTCHAR U+0064 latin small letter d
ENCODING 100
SWIDTH 512 0
DWIDTH 8 0
BBX 8 15 0 -3
BITMAP
00
00
03
03
03
3B
7F
63
63
63
7F
3B
00
00
00
ENDCHAR
STARTCHAR U+0065 latin small letter e
ENCODING 101
SWIDTH 512 0
DWIDTH 8 0
BBX 8 15 0 -3
BITMAP
00
00
00
00
00
3E
7F
63
7F
60
7E
3E
00
00
00
ENDCHAR
STARTCHAR U+0066 latin small letter f
ENCODING 102
SWIDTH 512 0
DWIDTH 8 0
BBX 8 15 0 -3
BITMAP
00
00
1E
3F
33
30
7E
7E
30
30
30
30
00
00
00
ENDCHAR
STARTCHAR U+0067 latin small letter g
ENCODING 103
SWIDTH 512 0
DWIDTH 8 0
BBX 8 15 0 -3
BITMAP
00
00
00
00
00
3B
7F
63
63
7F
3B
03
63
7F
3E
ENDCHAR
STARTCHAR U+0068 latin small letter h
ENCODING 104
SWIDTH 512 0
DWIDTH 8 0
BBX 8 15 0 -3
BITMAP
00
00
60
60
60
6E
7F
63
63
63
63
63
00
00
00
ENDCHAR
STARTCHAR U+0069 latin small letter i
ENCODING 105
SWIDTH 512 0
DWIDTH 8 0
BBX 8 15 0 -3
BITMAP
00
00
0C
0C
00
3C
3C
0C
0C
0C
0C
0C
00
00
00
ENDCHAR
STARTCHAR U+006a latin small letter j
ENCODING 106
SWIDTH 512 0
DWIDTH 8 0
BBX 8 15 0 -3
BITMAP
00
00
06
06
00
1E
1E
06
06
06
06
66
7E
3C
00
ENDCHAR
STARTCHAR U+006b latin small letter k
ENCODING 107
SWIDTH 512 0
DWIDTH 8 0
BBX 8 15 0 -3
BITMAP
00
00
60
60
60
66
6C
78
78
6C
66
63
00
00
00
ENDCHAR
STARTCHAR U+006c latin small letter l
ENCODING 108
SWIDTH 512 0
DWIDTH 8 0
BBX 8 15 0 -3
BITMAP
00
00
18
18
18
18
18
18
18
18
1E
0E
00
00
00
ENDCHAR
STARTCHAR U+006d latin small letter m
ENCODING 109
SWIDTH 512 0
DWIDTH 8 0
BBX 8 15 0 -3
BITMAP
00
00
00
00
00
76
7F
6B
6B
6B
6B
63
00
00
00
ENDCHAR
STARTCHAR U+006e latin small letter n
ENCODING 110
SWIDTH 512 0
DWIDTH 8 0
BBX 8 15 0 -3
BITMAP
00
00
00
00
00
6E
7F
63
63
63
63
63
00
00
00
ENDCHAR
STARTCHAR U+006f latin small letter o
ENCODING 111
SWIDTH 512 0
DWIDTH 8 0
BBX 8 15 0 -3
BITMAP
00
00
00
00
00
3E
7F
63
63
63
7F
3E
00
00
00
ENDCHAR
STARTCHAR U+0070 latin small letter p
ENCODING 112
SWIDTH 512 0
DWIDTH 8 0
BBX 8 15 0 -3
BITMAP
00
00
00
00
00
6E
7F
63
63
7F
6E
60
60
60
60
ENDCHAR
STARTCHAR U+0071 latin small letter q
ENCODING 113
SWIDTH 512 0
DWIDTH 8 0
BBX 8 15 0 -3
BITMAP
00
00
00
00
00
3B
7F
63
63
7F
3B
03
03
03
03
ENDCHAR
STARTCHAR U+0072 latin small letter r
ENCODING 114
SWIDTH 512 0
DWIDTH 8 0
BBX 8 15 0 -3
BITMAP
00
00
00
00
00
6E
7F
63
60
60
60
60
00
00
00
ENDCHAR
STARTCHAR U+0073 latin small letter s
ENCODING 115
SWIDTH 512 0
DWIDTH 8 0
BBX 8 15 0 -3
BITMAP
00
00
00
00
00
3F
7F
60
3E
03
7F
7E
00
00
00
ENDCHAR
STARTCHAR U+0074 latin small letter t
ENCODING 116
SWIDTH 512 0
DWIDTH 8 0
BBX 8 15 0 -3
BITMAP
00
00
00
30
30
7E
7E
30
30
33
3F
1E
00
00
00
ENDCHAR
STARTCHAR U+0075 latin small letter u
ENCODING 117
SWIDTH 512 0
DWIDTH 8 0
BBX 8 15 0 -3
BITMAP
00
00
00
00
00
63
63
63
63
63
7F
3B
00
00
00
ENDCHAR
STARTCHAR U+0076 latin small letter v
ENCODING 118
SWIDTH 512 0
DWIDTH 8 0
BBX 8 15 0 -3
BITMAP
00
00
00
00
00
63
63
63
36
36
1C
1C
00
00
00
ENDCHAR
STARTCHAR U+0077 latin small letter w
ENCODING 119
SWIDTH 512 0
DWIDTH 8 0
BBX 8 15 0 -3
BITMAP
00
00
00
00
00
63
63
6B
6B
7F
77
22
00
00
00
ENDCHAR
STARTCHAR U+0078 latin small letter x
ENCODING 120
SWIDTH 512 0
DWIDTH 8 0
BBX 8 15 0 -3
BITMAP
00
00
00
00
00
63
36
1C
1C
1C
36
63
00
00
00
ENDCHAR
STARTCHAR U+0079 latin small letter y
ENCODING 121
SWIDTH 512 0
DWIDTH 8 0
BBX 8 15 0 -3
BITMAP
00
00
00
00
00
63
63
63
63
7F
3B
03
63
7F
3E
ENDCHAR
STARTCHAR U+007a latin small letter z
ENCODING 122
SWIDTH 512 0
DWIDTH 8 0
BBX 8 15 0 -3
BITMAP
00
00
00
00
00
7F
7F
06
1C
30
7F
7F
00
00
00
ENDCHAR
STARTCHAR U+007b left curly brace
ENCODING 123
SWIDTH 512 0
DWIDTH 8 0
BBX 8 15 0 -3
BITMAP
00
0E
1E
18
18
18
38
70
38
18
18
18
1E
0E
00
ENDCHAR
STARTCHAR U+007c vertical bar
ENCODING 124
SWIDTH 512 0
DWIDTH 8 0
BBX 8 15 0 -3
BITMAP
00
18
18
18
18
18
18
18
18
18
18
18
18
00
00
ENDCHAR
STARTCHAR U+007d right curly brace
ENCODING 125
SWIDTH 512 0
DWIDTH 8 0
BBX 8 15 0 -3
BITMAP
00
70
78
18
18
18
1C
0E
1C
18
18
18
78
70
00
ENDCHAR
STARTCHAR U+007e tilde
ENCODING 126
SWIDTH 512 0
DWIDTH 8 0
BBX 8 15 0 -3
BITMAP
00
00
00
33
7B
6F
66
00
00
00
00
00
00
00
00
ENDCHAR
STARTCHAR nil
ENCODING 127
SWIDTH 512 0
DWIDTH 8 0
BBX 8 15 0 -3
BITMAP
00
7E
42
42
42
42
42
42
42
42
42
42
42
7E
00
ENDCHAR
STARTCHAR nil
ENCODING 128
SWIDTH 512 0
DWIDTH 8 0
BBX 8 15 0 -3
BITMAP
00
7E
42
42
42
42
42
42
42
42
42
42
42
7E
00
ENDCHAR
STARTCHAR nil
ENCODING 129
SWIDTH 512 0
DWIDTH 8 0
BBX 8 15 0 -3
BITMAP
00
7E
42
42
42
42
42
42
42
42
42
42
42
7E
00
ENDCHAR
STARTCHAR nil
ENCODING 130
SWIDTH 512 0
DWIDTH 8 0
BBX 8 15 0 -3
BITMAP
00
7E
42
42
42
42
42
42
42
42
42
42
42
7E
00
ENDCHAR
STARTCHAR nil
ENCODING 131
SWIDTH 512 0
DWIDTH 8 0
BBX 8 15 0 -3
BITMAP
00
7E
42
42
42
42
42
42
42
42
42
42
42
7E
00
ENDCHAR
STARTCHAR nil
ENCODING 132
SWIDTH 512 0
DWIDTH 8 0
BBX 8 15 0 -3
BITMAP
00
7E
42
42
42
42
42
42
42
42
42
42
42
7E
00
ENDCHAR
STARTCHAR nil
ENCODING 133
SWIDTH 512 0
DWIDTH 8 0
BBX 8 15 0 -3
BITMAP
00
7E
42
42
42
42
42
42
42
42
42
42
42
7E
00
ENDCHAR
STARTCHAR nil
ENCODING 134
SWIDTH 512 0
DWIDTH 8 0
BBX 8 15 0 -3
BITMAP
00
7E
42
42
42
42
42
42
42
42
42
42
42
7E
00
ENDCHAR
STARTCHAR nil
ENCODING 135
SWIDTH 512 0
DWIDTH 8 0
BBX 8 15 0 -3
BITMAP
00
7E
42
42
42
42
42
42
42
42
42
42
42
7E
00
ENDCHAR
STARTCHAR nil
ENCODING 136
SWIDTH 512 0
DWIDTH 8 0
BBX 8 15 0 -3
BITMAP
00
7E
42
42
42
42
42
42
42
42
42
42
42
7E
00
ENDCHAR
STARTCHAR nil
ENCODING 137
SWIDTH 512 0
DWIDTH 8 0
BBX 8 15 0 -3
BITMAP
00
7E
42
42
42
42
42
42
42
42
42
42
42
7E
00
ENDCHAR
STARTCHAR nil
ENCODING 138
SWIDTH 512 0
DWIDTH 8 0
BBX 8 15 0 -3
BITMAP
00
7E
42
42
42
42
42
42
42
42
42
42
42
7E
00
ENDCHAR
STARTCHAR nil
ENCODING 139
SWIDTH 512 0
DWIDTH 8 0
BBX 8 15 0 -3
BITMAP
00
7E
42
42
42
42
42
42
42
42
42
42
42
7E
00
ENDCHAR
STARTCHAR nil
ENCODING 140
SWIDTH 512 0
DWIDTH 8 0
BBX 8 15 0 -3
BITMAP
00
7E
42
42
42
42
42
42
42
42
42
42
42
7E
00
ENDCHAR
STARTCHAR nil
ENCODING 141
SWIDTH 512 0
DWIDTH 8 0
BBX 8 15 0 -3
BITMAP
00
7E
42
42
42
42
42
42
42
42
42
42
42
7E
00
ENDCHAR
STARTCHAR nil
ENCODING 142
SWIDTH 512 0
DWIDTH 8 0
BBX 8 15 0 -3
BITMAP
00
7E
42
42
42
42
42
42
42
42
42
42
42
7E
00
ENDCHAR
STARTCHAR nil
ENCODING 143
SWIDTH 512 0
DWIDTH 8 0
BBX 8 15 0 -3
BITMAP
00
7E
42
42
42
42
42
42
42
42
42
42
42
7E
00
ENDCHAR
STARTCHAR nil
ENCODING 144
SWIDTH 512 0
DWIDTH 8 0
BBX 8 15 0 -3
BITMAP
00
7E
42
42
42
42
42
42
42
42
42
42
42
7E
00
ENDCHAR
STARTCHAR nil
ENCODING 145
SWIDTH 512 0
DWIDTH 8 0
BBX 8 15 0 -3
BITMAP
00
7E
42
42
42
42
42
42
42
42
42
42
42
7E
00
ENDCHAR
STARTCHAR nil
ENCODING 146
SWIDTH 512 0
DWIDTH 8 0
BBX 8 15 0 -3
BITMAP
00
7E
42
42
42
42
42
42
42
42
42
42
42
7E
00
ENDCHAR
STARTCHAR nil
ENCODING 147
SWIDTH 512 0
DWIDTH 8 0
BBX 8 15 0 -3
BITMAP
00
7E
42
42
42
42
42
42
42
42
42
42
42
7E
00
ENDCHAR
STARTCHAR nil
ENCODING 148
SWIDTH 512 0
DWIDTH 8 0
BBX 8 15 0 -3
BITMAP
00
7E
42
42
42
42
42
42
42
42
42
42
42
7E
00
ENDCHAR
STARTCHAR nil
ENCODING 149
SWIDTH 512 0
DWIDTH 8 0
BBX 8 15 0 -3
BITMAP
00
7E
42
42
42
42
42
42
42
42
42
42
42
7E
00
ENDCHAR
STARTCHAR nil
ENCODING 150
SWIDTH 512 0
DWIDTH 8 0
BBX 8 15 0 -3
BITMAP
00
7E
42
42
42
42
42
42
42
42
42
42
42
7E
00
ENDCHAR
STARTCHAR nil
ENCODING 151
SWIDTH 512 0
DWIDTH 8 0
BBX 8 15 0 -3
BITMAP
00
7E
42
42
42
42
42
42
42
42
42
42
42
7E
00
ENDCHAR
STARTCHAR nil
ENCODING 152
SWIDTH 512 0
DWIDTH 8 0
BBX 8 15 0 -3
BITMAP
00
7E
42
42
42
42
42
42
42
42
42
42
42
7E
00
ENDCHAR
STARTCHAR nil
ENCODING 153
SWIDTH 512 0
DWIDTH 8 0
BBX 8 15 0 -3
BITMAP
00
7E
42
42
42
42
42
42
42
42
42
42
42
7E
00
ENDCHAR
STARTCHAR nil
ENCODING 154
SWIDTH 512 0
DWIDTH 8 0
BBX 8 15 0 -3
BITMAP
00
7E
42
42
42
42
42
42
42
42
42
42
42
7E
00
ENDCHAR
STARTCHAR nil
ENCODING 155
SWIDTH 512 0
DWIDTH 8 0
BBX 8 15 0 -3
BITMAP
00
7E
42
42
42
42
42
42
42
42
42
42
42
7E
00
ENDCHAR
STARTCHAR nil
ENCODING 156
SWIDTH 512 0
DWIDTH 8 0
BBX 8 15 0 -3
BITMAP
00
7E
42
42
42
42
42
42
42
42
42
42
42
7E
00
ENDCHAR
STARTCHAR nil
ENCODING 157
SWIDTH 512 0
DWIDTH 8 0
BBX 8 15 0 -3
BITMAP
00
7E
42
42
42
42
42
42
42
42
42
42
42
7E
00
ENDCHAR
STARTCHAR nil
ENCODING 158
SWIDTH 512 0
DWIDTH 8 0
BBX 8 15 0 -3
BITMAP
00
7E
42
42
42
42
42
42
42
42
42
42
42
7E
00
ENDCHAR
STARTCHAR nil
ENCODING 159
SWIDTH 512 0
DWIDTH 8 0
BBX 8 15 0 -3
BITMAP
00
7E
42
42
42
42
42
42
42
42
42
42
42
7E
00
ENDCHAR
STARTCHAR U+00a0 no-break space
ENCODING 160
SWIDTH 512 0
DWIDTH 8 0
BBX 8 15 0 -3
BITMAP
00
00
00
00
00
00
00
00
00
00
00
00
00
00
00
ENDCHAR
STARTCHAR U+0104 latin captial letter A with ogonek
ENCODING 161
SWIDTH 512 0
DWIDTH 8 0
BBX 8 15 0 -3
BITMAP
00
00
3E
7F
63
63
7F
7F
63
63
63
67
0C
06
00
ENDCHAR
STARTCHAR U+02d8 breve
ENCODING 162
SWIDTH 512 0
DWIDTH 8 0
BBX 8 15 0 -3
BITMAP
00
41
63
3E
00
00
00
00
00
00
00
00
00
00
00
ENDCHAR
STARTCHAR U+0141 latin capital letter L with stroke
ENCODING 163
SWIDTH 512 0
DWIDTH 8 0
BBX 8 15 0 -3
BITMAP
00
00
60
60
6C
78
70
E0
E0
60
7F
7F
00
00
00
ENDCHAR
STARTCHAR U+00a4 currency sign
ENCODING 164
SWIDTH 512 0
DWIDTH 8 0
BBX 8 15 0 -3
BITMAP
00
00
00
00
C3
FF
7E
66
66
7E
FF
C3
00
00
00
ENDCHAR
STARTCHAR U+013d latin capital letter L with caron
ENCODING 165
SWIDTH 512 0
DWIDTH 8 0
BBX 8 15 0 -3
BITMAP
00
6C
38
00
60
60
60
60
60
60
7F
7F
00
00
00
ENDCHAR
STARTCHAR U+015a latin capital letter S with acute
ENCODING 166
SWIDTH 512 0
DWIDTH 8 0
BBX 8 15 0 -3
BITMAP
00
0E
38
00
3E
7F
63
38
0E
63
7F
3E
00
00
00
ENDCHAR
STARTCHAR U+00a7 section sign
ENCODING 167
SWIDTH 512 0
DWIDTH 8 0
BBX 8 15 0 -3
BITMAP
00
00
3E
7E
60
3C
7E
66
7E
3C
06
7E
7C
00
00
ENDCHAR
STARTCHAR U+00a8 diaresis
ENCODING 168
SWIDTH 512 0
DWIDTH 8 0
BBX 8 15 0 -3
BITMAP
00
00
36
36
00
00
00
00
00
00
00
00
00
00
00
ENDCHAR
STARTCHAR U+0160 latin capital letter S with caron
ENCODING 169
SWIDTH 512 0
DWIDTH 8 0
BBX 8 15 0 -3
BITMAP
00
36
1C
00
3E
7F
63
38
0E
63
7F
3E
00
00
00
ENDCHAR
STARTCHAR U+015e latin capital letter S with cedilla
ENCODING 170
SWIDTH 512 0
DWIDTH 8 0
BBX 8 15 0 -3
BITMAP
00
00
3E
7F
63
70
3C
1E
07
63
7F
3E
0C
18
00
ENDCHAR
STARTCHAR U+0164 latin capital letter T with caron
ENCODING 171
SWIDTH 512 0
DWIDTH 8 0
BBX 8 15 0 -3
BITMAP
00
36
1C
00
FF
FF
18
18
18
18
18
18
00
00
00
ENDCHAR
STARTCHAR U+0179 latin capital letter Z with acute
ENCODING 172
SWIDTH 512 0
DWIDTH 8 0
BBX 8 15 0 -3
BITMAP
00
0E
38
00
7F
7F
06
0C
18
30
7F
7F
00
00
00
ENDCHAR
STARTCHAR U+00ad soft hyphen
ENCODING 173
SWIDTH 512 0
DWIDTH 8 0
BBX 8 15 0 -3
BITMAP
00
00
00
00
00
00
00
3C
3C
00
00
00
00
00
00
ENDCHAR
STARTCHAR U+017d latin capital letter Z with caron
ENCODING 174
SWIDTH 512 0
DWIDTH 8 0
BBX 8 15 0 -3
BITMAP
00
36
1C
00
7F
7F
06
0C
18
30
7F
7F
00
00
00
ENDCHAR
STARTCHAR U+017b latin capital letter Z with dot above
ENCODING 175
SWIDTH 512 0
DWIDTH 8 0
BBX 8 15 0 -3
BITMAP
00
0C
0C
00
7F
7F
06
0C
18
30
7F
7F
00
00
00
ENDCHAR
STARTCHAR U+00b0 degree sign
ENCODING 176
SWIDTH 512 0
DWIDTH 8 0
BBX 8 15 0 -3
BITMAP
00
00
3C
7E
66
7E
3C
00
00
00
00
00
00
00
00
ENDCHAR
STARTCHAR U+0105 latin small letter a with ogonek
ENCODING 177
SWIDTH 512 0
DWIDTH 8 0
BBX 8 15 0 -3
BITMAP
00
00
00
00
00
3E
3F
03
3F
63
7F
3B
06
03
00
ENDCHAR
STARTCHAR U+02db ogonek
ENCODING 178
SWIDTH 512 0
DWIDTH 8 0
BBX 8 15 0 -3
BITMAP
00
00
00
00
00
00
00
00
00
00
00
04
0C
06
00
ENDCHAR
STARTCHAR U+0142 latin small letter l with stroke
ENCODING 179
SWIDTH 512 0
DWIDTH 8 0
BBX 8 15 0 -3
BITMAP
00
00
18
18
1A
1E
1C
38
38
18
1E
0E
00
00
00
ENDCHAR
STARTCHAR U+00b4 acute accent
ENCODING 180
SWIDTH 512 0
DWIDTH 8 0
BBX 8 15 0 -3
BITMAP
00
00
0E
38
00
00
00
00
00
00
00
00
00
00
00
ENDCHAR
STARTCHAR U+013e latin small letter l with caron
ENCODING 181
SWIDTH 512 0
DWIDTH 8 0
BBX 8 15 0 -3
BITMAP
00
36
1C
00
18
18
18
18
18
18
1E
0E
00
00
00
ENDCHAR
STARTCHAR U+015b latin small letter s with acute
ENCODING 182
SWIDTH 512 0
DWIDTH 8 0
BBX 8 15 0 -3
BITMAP
00
00
0E
38
00
3F
7F
60
3E
03
7F
7E
00
00
00
ENDCHAR
STARTCHAR U+02c7 caron
ENCODING 183
SWIDTH 512 0
DWIDTH 8 0
BBX 8 15 0 -3
BITMAP
00
00
36
1C
00
00
00
00
00
00
00
00
00
00
00
ENDCHAR
STARTCHAR U+00b8 cedilla
ENCODING 184
SWIDTH 512 0
DWIDTH 8 0
BBX 8 15 0 -3
BITMAP
00
00
00
00
00
00
00
00
00
00
00
08
0C
18
00
ENDCHAR
STARTCHAR U+0161 latin small letter s with caron
ENCODING 185
SWIDTH 512 0
DWIDTH 8 0
BBX 8 15 0 -3
BITMAP
00
00
36
1C
00
3F
7F
60
3E
03
7F
7E
00
00
00
ENDCHAR
STARTCHAR U+015f latin small letter s with cedilla
ENCODING 186
SWIDTH 512 0
DWIDTH 8 0
BBX 8 15 0 -3
BITMAP
00
00
00
00
00
3F
7F
60
3E
03
7F
7E
0C
18
00
ENDCHAR
STARTCHAR U+0165 latin small letter t with caron
ENCODING 187
SWIDTH 512 0
DWIDTH 8 0
BBX 8 15 0 -3
BITMAP
00
36
1C
00
30
7E
7E
30
30
33
3F
1E
00
00
00
ENDCHAR
STARTCHAR U+017a latin small letter z with acute
ENCODING 188
SWIDTH 512 0
DWIDTH 8 0
BBX 8 15 0 -3
BITMAP
00
00
0E
38
00
7F
7F
06
1C
30
7F
7F
00
00
00
ENDCHAR
STARTCHAR U+02dd double acute accent
ENCODING 189
SWIDTH 512 0
DWIDTH 8 0
BBX 8 15 0 -3
BITMAP
00
00
33
66
00
00
00
00
00
00
00
00
00
00
00
ENDCHAR
STARTCHAR U+017e latin small letter z with caron
ENCODING 190
SWIDTH 512 0
DWIDTH 8 0
BBX 8 15 0 -3
BITMAP
00
00
36
1C
00
7F
7F
06
1C
30
7F
7F
00
00
00
ENDCHAR
STARTCHAR U+017c latin small letter z with dot above
ENCODING 191
SWIDTH 512 0
DWIDTH 8 0
BBX 8 15 0 -3
BITMAP
00
00
0C
0C
00
7F
7F
06
1C
30
7F
7F
00
00
00
ENDCHAR
STARTCHAR U+0154 latin capital letter R with acute
ENCODING 192
SWIDTH 512 0
DWIDTH 8 0
BBX 8 15 0 -3
BITMAP
00
0E
38
00
7E
7F
63
7E
7C
6E
67
63
00
00
00
ENDCHAR
STARTCHAR U+00c1 latin capital letter A with acute
ENCODING 193
SWIDTH 512 0
DWIDTH 8 0
BBX 8 15 0 -3
BITMAP
00
0E
38
00
3E
7F
63
7F
7F
63
63
63
00
00
00
ENDCHAR
STARTCHAR U+00c2 latin capital letter A with circumflex
ENCODING 194
SWIDTH 512 0
DWIDTH 8 0
BBX 8 15 0 -3
BITMAP
00
1C
36
00
3E
7F
63
7F
7F
63
63
63
00
00
00
ENDCHAR
STARTCHAR U+0102 latin capital letter A with breve
ENCODING 195
SWIDTH 512 0
DWIDTH 8 0
BBX 8 15 0 -3
BITMAP
41
63
3E
00
3E
7F
63
7F
7F
63
63
63
00
00
00
ENDCHAR
STARTCHAR U+00c4 latin capital letter A with diaresis
ENCODING 196
SWIDTH 512 0
DWIDTH 8 0
BBX 8 15 0 -3
BITMAP
00
36
36
00
3E
7F
63
7F
7F
63
63
63
00
00
00
ENDCHAR
STARTCHAR U+0139 latin capital letter L with acute
ENCODING 197
SWIDTH 512 0
DWIDTH 8 0
BBX 8 15 0 -3
BITMAP
00
1C
70
00
60
60
60
60
60
60
7F
7F
00
00
00
ENDCHAR
STARTCHAR U+0106 latin capital letter C with acute
ENCODING 198
SWIDTH 512 0
DWIDTH 8 0
BBX 8 15 0 -3
BITMAP
00
0E
38
00
3E
7F
63
60
60
63
7F
3E
00
00
00
ENDCHAR
STARTCHAR U+00c7 latin capital letter C with cedilla
ENCODING 199
SWIDTH 512 0
DWIDTH 8 0
BBX 8 15 0 -3
BITMAP
00
00
3E
7F
63
60
60
60
60
63
7F
3E
0C
18
00
ENDCHAR
STARTCHAR U+010c latin capital letter C with caron
ENCODING 200
SWIDTH 512 0
DWIDTH 8 0
BBX 8 15 0 -3
BITMAP
00
36
1C
00
3E
7F
63
60
60
63
7F
3E
00
00
00
ENDCHAR
STARTCHAR U+00c9 latin capital letter E with acute
ENCODING 201
SWIDTH 512 0
DWIDTH 8 0
BBX 8 15 0 -3
BITMAP
00
0E
38
00
7F
7F
60
7E
7E
60
7F
7F
00
00
00
ENDCHAR
STARTCHAR U+0118 latin capital letter E with ogonek
ENCODING 202
SWIDTH 512 0
DWIDTH 8 0
BBX 8 15 0 -3
BITMAP
00
00
7F
7F
60
60
7E
7E
60
60
7F
7F
0C
06
00
ENDCHAR
STARTCHAR U+00cb latin capital letter E with diaresis
ENCODING 203
SWIDTH 512 0
DWIDTH 8 0
BBX 8 15 0 -3
BITMAP
00
36
36
00
7F
7F
60
7E
7E
60
7F
7F
00
00
00
ENDCHAR
STARTCHAR U+011a latin capital letter E with caron
ENCODING 204
SWIDTH 512 0
DWIDTH 8 0
BBX 8 15 0 -3
BITMAP
00
36
1C
00
7F
7F
60
7E
7E
60
7F
7F
00
00
00
ENDCHAR
STARTCHAR U+00cd latin capital letter I with acute
ENCODING 205
SWIDTH 512 0
DWIDTH 8 0
BBX 8 15 0 -3
BITMAP
00
0E
38
00
7E
7E
18
18
18
18
7E
7E
00
00
00
ENDCHAR
STARTCHAR U+00ce latin capital letter I with circumflex
ENCODING 206
SWIDTH 512 0
DWIDTH 8 0
BBX 8 15 0 -3
BITMAP
00
1C
36
00
7E
7E
18
18
18
18
7E
7E
00
00
00
ENDCHAR
STARTCHAR U+010e latin capital letter D with caron
ENCODING 207
SWIDTH 512 0
DWIDTH 8 0
BBX 8 15 0 -3
BITMAP
00
36
1C
00
7C
7E
67
63
63
67
7E
7C
00
00
00
ENDCHAR
STARTCHAR U+00d0 latin capital letter Eth
ENCODING 208
SWIDTH 512 0
DWIDTH 8 0
BBX 8 15 0 -3
BITMAP
00
00
7C
7E
67
63
F3
F3
63
67
7E
7C
00
00
00
ENDCHAR
STARTCHAR U+0143 latin capital letter N with acute
ENCODING 209
SWIDTH 512 0
DWIDTH 8 0
BBX 8 15 0 -3
BITMAP
00
0E
38
00
63
73
73
7B
6F
67
67
63
00
00
00
ENDCHAR
STARTCHAR U+0147 latin capital letter N with caron
ENCODING 210
SWIDTH 512 0
DWIDTH 8 0
BBX 8 15 0 -3
BITMAP
00
36
1C
00
63
73
73
7B
6F
67
67
63
00
00
00
ENDCHAR
STARTCHAR U+00d3 latin capital letter O with acute
ENCODING 211
SWIDTH 512 0
DWIDTH 8 0
BBX 8 15 0 -3
BITMAP
00
0E
38
00
3E
7F
63
63
63
63
7F
3E
00
00
00
ENDCHAR
STARTCHAR U+00d4 latin capital letter O with circumflex
ENCODING 212
SWIDTH 512 0
DWIDTH 8 0
BBX 8 15 0 -3
BITMAP
00
1C
36
00
3E
7F
63
63
63
63
7F
3E
00
00
00
ENDCHAR
STARTCHAR U+0150 latin capital letter O with double acute
ENCODING 213
SWIDTH 512 0
DWIDTH 8 0
BBX 8 15 0 -3
BITMAP
00
33
66
00
3E
7F
63
63
63
63
7F
3E
00
00
00
ENDCHAR
STARTCHAR U+00d6 latin capital letter O with diaresis
ENCODING 214
SWIDTH 512 0
DWIDTH 8 0
BBX 8 15 0 -3
BITMAP
00
36
36
00
3E
7F
63
63
63
63
7F
3E
00
00
00
ENDCHAR
STARTCHAR U+00d7 multiplication sign
ENCODING 215
SWIDTH 512 0
DWIDTH 8 0
BBX 8 15 0 -3
BITMAP
00
00
00
00
00
63
36
1C
1C
36
63
00
00
00
00
ENDCHAR
STARTCHAR U+0158 latin capital letter R with caron
ENCODING 216
SWIDTH 512 0
DWIDTH 8 0
BBX 8 15 0 -3
BITMAP
00
36
1C
00
7E
7F
63
7E
7C
6E
67
63
00
00
00
ENDCHAR
STARTCHAR U+016e latin capital letter U with ring above
ENCODING 217
SWIDTH 512 0
DWIDTH 8 0
BBX 8 15 0 -3
BITMAP
00
1C
36
1C
00
63
63
63
63
63
7F
3E
00
00
00
ENDCHAR
STARTCHAR U+00da latin capital letter U with acute
ENCODING 218
SWIDTH 512 0
DWIDTH 8 0
BBX 8 15 0 -3
BITMAP
00
0E
38
00
63
63
63
63
63
63
7F
3E
00
00
00
ENDCHAR
STARTCHAR U+0170 latin capital letter U with double acute
ENCODING 219
SWIDTH 512 0
DWIDTH 8 0
BBX 8 15 0 -3
BITMAP
00
33
66
00
63
63
63
63
63
63
7F
3E
00
00
00
ENDCHAR
STARTCHAR U+00dc latin capital letter U with diaresis
ENCODING 220
SWIDTH 512 0
DWIDTH 8 0
BBX 8 15 0 -3
BITMAP
00
36
36
00
63
63
63
63
63
63
7F
3E
00
00
00
ENDCHAR
STARTCHAR U+00dd latin capital letter Y with acute
ENCODING 221
SWIDTH 512 0
DWIDTH 8 0
BBX 8 15 0 -3
BITMAP
00
0E
38
00
63
63
63
7F
3E
0C
0C
0C
00
00
00
ENDCHAR
STARTCHAR U+0162 latin capital letter T with cedilla
ENCODING 222
SWIDTH 512 0
DWIDTH 8 0
BBX 8 15 0 -3
BITMAP
00
00
FF
FF
18
18
18
18
18
18
18
18
0C
18
00
ENDCHAR
STARTCHAR U+00df latin small letter sharp s
ENCODING 223
SWIDTH 512 0
DWIDTH 8 0
BBX 8 15 0 -3
BITMAP
00
00
3C
7E
66
66
6C
66
63
63
6F
6E
60
00
00
ENDCHAR
STARTCHAR U+0155 latin small letter r with acute
ENCODING 224
SWIDTH 512 0
DWIDTH 8 0
BBX 8 15 0 -3
BITMAP
00
00
0E
38
00
6E
7F
63
60
60
60
60
00
00
00
ENDCHAR
STARTCHAR U+00e1 latin small letter a with acute
ENCODING 225
SWIDTH 512 0
DWIDTH 8 0
BBX 8 15 0 -3
BITMAP
00
00
0E
38
00
3E
3F
03
3F
63
7F
3B
00
00
00
ENDCHAR
STARTCHAR U+00e2 latin small letter a with circumflex
ENCODING 226
SWIDTH 512 0
DWIDTH 8 0
BBX 8 15 0 -3
BITMAP
00
00
1C
36
00
3E
3F
03
3F
63
7F
3B
00
00
00
ENDCHAR
STARTCHAR U+0103 latin small letter a with breve
ENCODING 227
SWIDTH 512 0
DWIDTH 8 0
BBX 8 15 0 -3
BITMAP
00
41
63
3E
00
3E
3F
03
3F
63
7F
3B
00
00
00
ENDCHAR
STARTCHAR U+00e4 latin small letter a with diaresis
ENCODING 228
SWIDTH 512 0
DWIDTH 8 0
BBX 8 15 0 -3
BITMAP
00
00
36
36
00
3E
3F
03
3F
63
7F
3B
00
00
00
ENDCHAR
STARTCHAR U+013a latin small letter l with acute
ENCODING 229
SWIDTH 512 0
DWIDTH 8 0
BBX 8 15 0 -3
BITMAP
00
0E
38
00
18
18
18
18
18
18
1E
0E
00
00
00
ENDCHAR
STARTCHAR U+0107 latin small letter c with acute
ENCODING 230
SWIDTH 512 0
DWIDTH 8 0
BBX 8 15 0 -3
BITMAP
00
00
0E
38
00
3E
7F
63
60
63
7F
3E
00
00
00
ENDCHAR
STARTCHAR U+00e7 latin small letter c with cedilla
ENCODING 231
SWIDTH 512 0
DWIDTH 8 0
BBX 8 15 0 -3
BITMAP
00
00
00
00
00
3E
7F
63
60
63
7F
3E
0C
18
00
ENDCHAR
STARTCHAR U+010d latin small letter c with caron
ENCODING 232
SWIDTH 512 0
DWIDTH 8 0
BBX 8 15 0 -3
BITMAP
00
00
36
1C
00
3E
7F
63
60
63
7F
3E
00
00
00
ENDCHAR
STARTCHAR U+00e9 latin small letter e with acute
ENCODING 233
SWIDTH 512 0
DWIDTH 8 0
BBX 8 15 0 -3
BITMAP
00
00
0E
38
00
3E
7F
63
7F
60
7E
3E
00
00
00
ENDCHAR
STARTCHAR U+0119 latin small letter e with ogonek
ENCODING 234
SWIDTH 512 0
DWIDTH 8 0
BBX 8 15 0 -3
BITMAP
00
00
00
00
00
3E
7F
63
7F
60
7E
3E
0C
06
00
ENDCHAR
STARTCHAR U+00eb latin small letter e with diaresis
ENCODING 235
SWIDTH 512 0
DWIDTH 8 0
BBX 8 15 0 -3
BITMAP
00
00
36
36
00
3E
7F
63
7F
60
7E
3E
00
00
00
ENDCHAR
STARTCHAR U+011b latin small letter e with caron
ENCODING 236
SWIDTH 512 0
DWIDTH 8 0
BBX 8 15 0 -3
BITMAP
00
00
36
1C
00
3E
7F
63
7F
60
7E
3E
00
00
00
ENDCHAR
STARTCHAR U+00ed latin small letter i with acute
ENCODING 237
SWIDTH 512 0
DWIDTH 8 0
BBX 8 15 0 -3
BITMAP
00
00
0E
38
00
3C
3C
0C
0C
0C
0C
0C
00
00
00
ENDCHAR
STARTCHAR U+00ee latin small letter i with circumflex
ENCODING 238
SWIDTH 512 0
DWIDTH 8 0
BBX 8 15 0 -3
BITMAP
00
00
1C
36
00
3C
3C
0C
0C
0C
0C
0C
00
00
00
ENDCHAR
STARTCHAR U+010f latin small letter d with caron
ENCODING 239
SWIDTH 512 0
DWIDTH 8 0
BBX 8 15 0 -3
BITMAP
00
36
1C
03
03
3B
7F
63
63
63
7F
3B
00
00
00
ENDCHAR
STARTCHAR U+0111 latin small letter d with stroke
ENCODING 240
SWIDTH 512 0
DWIDTH 8 0
BBX 8 15 0 -3
BITMAP
00
00
06
1F
06
76
FE
C6
C6
C6
FE
76
00
00
00
ENDCHAR
STARTCHAR U+0144 latin small letter n with acute
ENCODING 241
SWIDTH 512 0
DWIDTH 8 0
BBX 8 15 0 -3
BITMAP
00
00
0E
38
00
6E
7F
63
63
63
63
63
00
00
00
ENDCHAR
STARTCHAR U+0148 latin small letter n with caron
ENCODING 242
SWIDTH 512 0
DWIDTH 8 0
BBX 8 15 0 -3
BITMAP
00
00
36
1C
00
6E
7F
63
63
63
63
63
00
00
00
ENDCHAR
STARTCHAR U+00f3 latin small letter o with acute
ENCODING 243
SWIDTH 512 0
DWIDTH 8 0
BBX 8 15 0 -3
BITMAP
00
00
0E
38
00
3E
7F
63
63
63
7F
3E
00
00
00
ENDCHAR
STARTCHAR U+00f4 latin small letter o with circumflex
ENCODING 244
SWIDTH 512 0
DWIDTH 8 0
BBX 8 15 0 -3
BITMAP
00
00
1C
36
00
3E
7F
63
63
63
7F
3E
00
00
00
ENDCHAR
STARTCHAR U+0151 latin small letter o with double acute
ENCODING 245
SWIDTH 512 0
DWIDTH 8 0
BBX 8 15 0 -3
BITMAP
00
00
33
66
00
3E
7F
63
63
63
7F
3E
00
00
00
ENDCHAR
STARTCHAR U+00f6 latin small letter o with diaresis
ENCODING 246
SWIDTH 512 0
DWIDTH 8 0
BBX 8 15 0 -3
BITMAP
00
00
36
36
00
3E
7F
63
63
63
7F
3E
00
00
00
ENDCHAR
STARTCHAR U+00f7 division sign
ENCODING 247
SWIDTH 512 0
DWIDTH 8 0
BBX 8 15 0 -3
BITMAP
00
00
00
00
18
18
00
FF
FF
00
18
18
00
00
00
ENDCHAR
STARTCHAR U+0159 latin small letter r with caron
ENCODING 248
SWIDTH 512 0
DWIDTH 8 0
BBX 8 15 0 -3
BITMAP
00
00
36
1C
00
6E
7F
63
60
60
60
60
00
00
00
ENDCHAR
STARTCHAR U+016f latin small letter u with ring above
ENCODING 249
SWIDTH 512 0
DWIDTH 8 0
BBX 8 15 0 -3
BITMAP
00
1C
36
1C
00
63
63
63
63
63
7F
3B
00
00
00
ENDCHAR
STARTCHAR U+00fa latin small letter u with acute
ENCODING 250
SWIDTH 512 0
DWIDTH 8 0
BBX 8 15 0 -3
BITMAP
00
00
0E
38
00
63
63
63
63
63
7F
3B
00
00
00
ENDCHAR
STARTCHAR U+0171 latin small letter u with double acute
ENCODING 251
SWIDTH 512 0
DWIDTH 8 0
BBX 8 15 0 -3
BITMAP
00
00
33
66
00
63
63
63
63
63
7F
3B
00
00
00
ENDCHAR
STARTCHAR U+00fc latin small letter u with diaresis
ENCODING 252
SWIDTH 512 0
DWIDTH 8 0
BBX 8 15 0 -3
BITMAP
00
00
36
36
00
63
63
63
63
63
7F
3B
00
00
00
ENDCHAR
STARTCHAR U+00fd latin small letter y with acute
ENCODING 253
SWIDTH 512 0
DWIDTH 8 0
BBX 8 15 0 -3
BITMAP
00
00
0E
38
00
63
63
63
63
7F
3B
03
63
7F
3E
ENDCHAR
STARTCHAR U+0163 latin small letter t with cedilla
ENCODING 254
SWIDTH 512 0
DWIDTH 8 0
BBX 8 15 0 -3
BITMAP
00
00
00
30
30
7E
7E
30
30
33
3F
1E
0C
18
00
ENDCHAR
STARTCHAR U+02d9 dot above
ENCODING 255
SWIDTH 512 0
DWIDTH 8 0
BBX 8 15 0 -3
BITMAP
00
00
18
18
00
00
00
00
00
00
00
00
00
00
00
ENDCHAR
ENDFONT
